<svg xmlns="http://www.w3.org/2000/svg" viewBox="0 0 1800 900">
  <rect width="1800" height="900" fill="#f2efe8"/>
  <rect x="110" y="110" width="1580" height="680" rx="30" fill="#fcfaf5"/>
  <rect x="170" y="170" width="1460" height="250" rx="24" fill="#dfe8e2"/>
  <circle cx="960" cy="285" r="90" fill="#c6d7cf"/>
  <g fill="#b99561">
    <circle cx="520" cy="560" r="68"/><circle cx="820" cy="560" r="68"/><circle cx="1120" cy="560" r="68"/><circle cx="1420" cy="560" r="68"/>
  </g>
  <g fill="#6d8a7a">
    <path d="M520 520c10 12 18 30 18 50 0 25-14 46-36 58 2-34-14-58-39-72 22-5 39-18 57-36Z"/>
    <path d="M820 520c10 12 18 30 18 50 0 25-14 46-36 58 2-34-14-58-39-72 22-5 39-18 57-36Z"/>
    <path d="M1120 520c10 12 18 30 18 50 0 25-14 46-36 58 2-34-14-58-39-72 22-5 39-18 57-36Z"/>
    <path d="M1420 520c10 12 18 30 18 50 0 25-14 46-36 58 2-34-14-58-39-72 22-5 39-18 57-36Z"/>
  </g>
</svg>
